Coordinates
version=1
nRows=19
nColumns=24
inDegrees=yes

Units are S.I. units (second, meters, Newtons, ...)
Angles are in degrees.

endheader
time	pelvis_tilt	pelvis_list	pelvis_rotation	pelvis_tx	pelvis_ty	pelvis_tz	hip_flexion_r	hip_adduction_r	hip_rotation_r	knee_angle_r	ankle_angle_r	subtalar_angle_r	mtp_angle_r	hip_flexion_l	hip_adduction_l	hip_rotation_l	knee_angle_l	ankle_angle_l	subtalar_angle_l	mtp_angle_l	lumbar_extension	lumbar_bending	lumbar_rotation
      0.80833333	      0.34181756	     -3.41218226	     -1.30460044	     -0.46844982	      1.06875586	      0.34224320	      7.90165793	      8.59908861	     -2.30506960	    -12.26993238	      2.00986551	     -9.55859933	     -0.21571333	     14.29885687	     -5.64453165	     -1.99964812	    -67.23941139	     -0.45585740	     -0.97333884	      6.44221240	      3.41650632	      6.90531053	     -2.22174822
      0.81250000	      0.35350707	     -3.31301344	     -1.34606342	     -0.46339032	      1.06933191	      0.34250845	      7.53168726	      8.52302946	     -2.12956027	    -12.17212235	      2.17538862	     -9.62743698	     -0.22588002	     14.87127987	     -5.52338272	     -1.85714958	    -67.14242077	      0.17218216	     -1.27869479	      6.36695634	      3.35123915	      6.77089299	     -2.10402739
      0.81666667	      0.37030787	     -3.23157364	     -1.35086314	     -0.45833461	      1.06988767	      0.34280301	      7.14258999	      8.47173737	     -1.92943883	    -12.03351950	      2.30932313	     -9.65979758	     -0.23228411	     15.43602036	     -5.42163261	     -1.68373496	    -66.98668975	      0.67015589	     -1.52168945	      6.31880601	      3.27194266	      6.60716509	     -2.01339144
      0.82083333	      0.39060246	     -3.12315273	     -1.40608406	     -0.45326065	      1.07045959	      0.34304071	      6.75803297	      8.38150041	     -1.75284766	    -11.92797550	      2.48696079	     -9.74431221	     -0.24132243	     15.95967300	     -5.28443567	     -1.56687925	    -66.75270969	      1.29202625	     -1.80241989	      6.26152377	      3.20747676	      6.46785240	     -1.91383840
      0.82500000	      0.40762328	     -3.00294572	     -1.50578655	     -0.44824396	      1.07100566	      0.34331395	      6.38864141	      8.27962172	     -1.55612312	    -11.84494149	      2.67366342	     -9.85862017	     -0.26085834	     16.46436757	     -5.14177105	     -1.49820855	    -66.45383822	      1.92144529	     -2.02428629	      6.14791596	      3.12089406	      6.37257578	     -1.76670157
      0.82916667	      0.42502912	     -2.91469996	     -1.51388345	     -0.44316825	      1.07152841	      0.34355921	      5.98819543	      8.21533718	     -1.36143050	    -11.68949733	      2.79493986	     -9.89872459	     -0.27014397	     16.97333353	     -5.02086694	     -1.33531794	    -66.09683373	      2.33169041	     -2.19363862	      6.09424756	      3.06562125	      6.20600182	     -1.67584719
      0.83333333	      0.45759727	     -2.80441862	     -1.58197140	     -0.43810673	      1.07206347	      0.34380142	      5.58353254	      8.12127816	     -1.17389447	    -11.56611350	      2.97001869	     -9.99048707	     -0.28298667	     17.42934680	     -4.88102778	     -1.24560587	    -65.66921265	      2.88290239	     -2.40534554	      6.02752550	      2.99249163	      6.05862564	     -1.57607978
      0.83750000	      0.48150961	     -2.70436275	     -1.64003333	     -0.43306384	      1.07255280	      0.34404227	      5.18307365	      8.04013461	     -0.97651468	    -11.43445382	      3.12416339	    -10.07616874	     -0.29734925	     17.88432418	     -4.75090267	     -1.14507864	    -65.18604345	      3.34816065	     -2.56139556	      5.95713547	      2.90906200	      5.93275812	     -1.47705712
      0.84166667	      0.51164243	     -2.60573567	     -1.70058838	     -0.42800573	      1.07304006	      0.34426966	      4.77192240	      7.95771286	     -0.78167177	    -11.29003562	      3.27471052	    -10.16384616	     -0.31284492	     18.30966306	     -4.62011107	     -1.05174568	    -64.63526536	      3.79275130	     -2.70814658	      5.88577037	      2.83661169	      5.80259854	     -1.37631770
      0.84583333	      0.53573164	     -2.51251889	     -1.76093304	     -0.42293811	      1.07349165	      0.34448807	      4.36100300	      7.87951295	     -0.58950254	    -11.13469821	      3.41975737	    -10.25390863	     -0.32961160	     18.72345457	     -4.49405507	     -0.96391506	    -64.02796915	      4.20789076	     -2.84321938	      5.81232218	      2.76268528	      5.67779392	     -1.27677757
      0.85000000	      0.56345907	     -2.42016523	     -1.82455456	     -0.41788610	      1.07391978	      0.34470794	      3.94640685	      7.80163768	     -0.39805460	    -10.97753218	      3.56167589	    -10.34791397	     -0.34790553	     19.11426875	     -4.37112102	     -0.88495013	    -63.35823114	      4.59630469	     -2.97130050	      5.73531716	      2.68820967	      5.55982452	     -1.17714704
      0.85416667	      0.59737928	     -2.33151554	     -1.89195010	     -0.41281955	      1.07434039	      0.34491800	      3.51718838	      7.72521656	     -0.20220002	    -10.80569692	      3.70020880	    -10.45002258	     -0.37010578	     19.47536271	     -4.25077388	     -0.81502388	    -62.62782300	      4.96819178	     -3.10305678	      5.64570805	      2.60452994	      5.44394397	     -1.06949803
      0.85833333	      0.62741845	     -2.25393127	     -1.94271841	     -0.40775562	      1.07471105	      0.34510130	      3.08773246	      7.65864472	     -0.02303055	    -10.62187585	      3.82290006	    -10.53992080	     -0.39105944	     19.82680339	     -4.13774111	     -0.73352744	    -61.84391179	      5.27708362	     -3.22862771	      5.56329250	      2.53014631	      5.34613307	     -0.97482318
      0.86250000	      0.70068374	     -2.16880080	     -2.07036803	     -0.40277772	      1.07513260	      0.34537048	      2.62432747	      7.58271150	      0.20476472	    -10.46357773	      3.96404372	    -10.71687956	     -0.44083598	     20.09609012	     -4.04189112	     -0.74775879	    -60.99042099	      5.63434981	     -3.40479362	      5.37592657	      2.29504739	      5.24438909	     -0.80888420
      0.86666667	      0.70167816	     -2.11621296	     -2.05936286	     -0.39764353	      1.07538800	      0.34546821	      2.20222269	      7.53888869	      0.34197302	    -10.22720274	      4.03486236	    -10.75157249	     -0.45858961	     20.44955635	     -3.93631475	     -0.60677949	    -60.09977942	      5.80796610	     -3.49990559	      5.30788968	      2.31495981	      5.18822147	     -0.73932634
      0.87083333	      0.70653244	     -2.05266447	     -2.10007367	     -0.39252072	      1.07563543	      0.34560166	      1.78374748	      7.47972818	      0.48738330	    -10.01364822	      4.15178185	    -10.83659524	     -0.48130576	     20.76307283	     -3.83506642	     -0.53895910	    -59.14316865	      6.05501630	     -3.68180889	      5.22369423	      2.29777556	      5.09297179	     -0.66110303
      0.87500000	      0.72802424	     -1.99645502	     -2.14822538	     -0.38739850	      1.07587339	      0.34572768	      1.34258961	      7.42528552	      0.64372635	     -9.79176636	      4.26183408	    -10.91808997	     -0.50639644	     21.03446992	     -3.74167378	     -0.48278023	    -58.12920996	      6.26034192	     -3.88840986	      5.13087482	      2.25134824	      5.01786874	     -0.58251510
      0.87916667	      0.74187392	     -1.94527036	     -2.19570301	     -0.38229642	      1.07606146	      0.34586984	      0.90875956	      7.37650313	      0.80047556	     -9.56415621	      4.36687396	    -11.00880956	     -0.53677797	     21.29433161	     -3.65766256	     -0.43898086	    -57.05760764	      6.42470418	     -4.13997535	      5.01953660	      2.19329619	      4.94108249	     -0.49278741
      0.88333333	      0.66816095	     -1.92279762	     -2.22736901	     -0.37728763	      1.07604909	      0.34585634	      0.59305644	      7.34660231	      0.86990038	     -9.37631273	      4.41760271	    -11.03922716	     -0.54712533	     21.65008456	     -3.58616815	     -0.34689558	    -55.96107058	      6.52773204	     -4.24088987	      4.98081354	      2.09946786	      4.97231366	     -0.47407579
